
<svg xmlns="http://www.w3.org/2000/svg" xmlns:xlink="http://www.w3.org/1999/xlink" version="1.1" xml:space="preserve" viewBox="202 42 242 362">
<desc>Created with Fabric.js 3.6.3</desc>
<defs>
</defs>
<g transform="matrix(1 0 0 1 323 223)">
<rect style="stroke: rgb(0,0,0); stroke-width: 2; stroke-dasharray: none; stroke-linecap: butt; stroke-dashoffset: 0; stroke-linejoin: miter; stroke-miterlimit: 4; fill: rgb(255,255,255); fill-rule: evenodd; opacity: 1;" x="-120" y="-180" rx="40" ry="40" width="240" height="360"/>
</g>
<g transform="matrix(1 0 0 1 325.5 221.67)">
<path style="stroke: rgb(0,0,0); stroke-width: 2; stroke-dasharray: none; stroke-linecap: butt; stroke-dashoffset: 0; stroke-linejoin: miter; stroke-miterlimit: 4; fill: rgb(0,0,0); fill-rule: nonzero; opacity: 1;" transform=" translate(-324.17, -221)" d="M 228.33333333333331 63 L 300.37421678772256 63 Q 407.6666666666667 85.33333333333331 421 166.66666666666666 L 421 379 L 340 378.3333333333333 Q 254.33333333333331 363.66666666666663 227.33333333333331 291.66666666666663 L 228.33333333333331 62" stroke-linecap="round"/>
</g>
<g transform="matrix(0.32 0 0 0.32 325.27 226.66)">
<g style="">
		<g transform="matrix(3.06 0 0 3.06 4.27 0.22)">
<path style="stroke: none; stroke-width: 1; stroke-dasharray: none; stroke-linecap: butt; stroke-dashoffset: 0; stroke-linejoin: miter; stroke-miterlimit: 4; fill: rgb(237,28,36); fill-rule: evenodd; opacity: 1;" transform=" translate(-307.21, -396.04)" d="m 285.9 344.1 c 20.9 -11.1 43.4 -13.4 61.8 -9.1 c 41.9 9.9 45.2 41.4 22.9 73.9 c -10.2 14.9 -25.3 29.2 -43.5 38.2 c -29.9 14.8 -58.5 15.6 -77.3 4.2 c -18.9 -11.4 -23.4 -30.6 -16.7 -51 c 6.9 -21.2 26.2 -43 52.8 -56.2 z" stroke-linecap="round"/>
</g>
		<g transform="matrix(3.06 0 0 3.06 163.27 -61.46)">
<path style="stroke: none; stroke-width: 1; stroke-dasharray: none; stroke-linecap: butt; stroke-dashoffset: 0; stroke-linejoin: miter; stroke-miterlimit: 4; fill: rgb(255,255,255); fill-rule: nonzero; opacity: 1;" transform=" translate(-359.27, -375.89)" d="m 351.7 368.2 v 0 c -0.1 1.2 -0.1 2.4 0.1 3.6 c 0.2 1.3 0.5 2.7 1 4 c 0.7 1.9 1.7 3.6 2.8 5 c 1 1.3 2.2 2.3 3.6 3.1 c 1.7 0.7 3.3 1.1 4.6 1 c 1.1 0 1.9 -0.3 2.5 -0.8 c 0.4 -0.4 0.7 -1 0.8 -1.8 c 0.2 -1.1 0 -2.5 -0.3 -4.3 c -0.1 -0.5 -0.2 -0.9 -0.3 -1.4 c -0.1 -0.4 -0.3 -0.9 -0.4 -1.3 c -0.9 -2.3 -2.1 -4.4 -3.6 -6 c -1.3 -1.4 -2.9 -2.4 -4.6 -2.9 c -1.8 -0.5 -3.3 -0.5 -4.4 -0.1 c -0.7 0.3 -1.3 0.8 -1.6 1.6 z M 350.9 340 c 8.9 -3.3 17.7 -2.6 25.2 1.1 c 7.8 3.8 14.1 10.9 17.4 19.8 c 1.9 5 2.6 10.2 2.3 15.1 c -0.3 5 -1.6 9.8 -4 14.1 c -0.1 0.2 -0.2 0.5 -0.5 0.9 c -0.2 0.4 -0.4 0.7 -0.5 0.9 c -3.6 5.9 -7.3 10.2 -11 13.3 c -3.8 3.1 -7.5 5.1 -11.2 6.5 c -9.1 3.4 -18.1 2.7 -25.7 -1 c -8 -3.9 -14.4 -10.9 -17.7 -19.9 c -1.8 -4.9 -2.7 -9.8 -2.5 -14.5 c 0.2 -4.8 1.3 -9.4 3.4 -13.7 c 1.6 -3.2 4.1 -6.9 7.4 -10.4 c 2.9 -3.1 6.4 -6.1 10.3 -8.7 v 0 c 1 -0.7 2.1 -1.3 3.2 -1.9 c 1.5 -0.6 2.7 -1.2 3.9 -1.6 z" stroke-linecap="round"/>
</g>
		<g transform="matrix(3.06 0 0 3.06 5.88 -2.42)">
<path style="stroke: none; stroke-width: 1; stroke-dasharray: none; stroke-linecap: butt; stroke-dashoffset: 0; stroke-linejoin: miter; stroke-miterlimit: 4; fill: rgb(255,255,255); fill-rule: nonzero; opacity: 1;" transform=" translate(-307.77, -395.2)" d="m 309.3 356.4 l 15.2 -5.7 c 1.4 -0.5 2.9 0.2 3.4 1.6 c 0 0.1 0.1 0.1 0.1 0.2 l 21.6 57.7 c 0.2 0.3 0.3 0.7 0.3 1.1 c 0.1 0.8 -0.2 1.6 -0.8 2.1 l -7.1 7.1 c -0.3 0.3 -0.6 0.5 -1 0.6 l -12.5 4.6 c -0.8 0.3 -1.7 0.2 -2.4 -0.3 v 0 L 312 416 l 2.7 7.1 c 0.2 0.4 0.4 0.9 0.4 1.4 c 0 0.7 -0.3 1.4 -0.8 1.8 l -7.1 7.1 c -0.3 0.3 -0.6 0.5 -0.9 0.6 v 0 l -15.3 5.7 c -1.4 0.5 -2.9 -0.2 -3.4 -1.6 l -21.8 -58.3 c -0.4 -1.1 -0.1 -2.3 0.8 -3 l 6.9 -6.9 c 0.3 -0.3 0.6 -0.5 1 -0.6 l 13.3 -4.9 c 0.8 -0.3 1.7 -0.2 2.4 0.3 v 0 l 13 8.5 l -2.4 -6.4 c -0.4 -1 -0.1 -2.1 0.6 -2.8 l 7 -7.1 c 0.3 -0.2 0.6 -0.4 0.9 -0.5 z" stroke-linecap="round"/>
</g>
		<g transform="matrix(3.06 0 0 3.06 -157.52 44.94)">
<path style="stroke: none; stroke-width: 1; stroke-dasharray: none; stroke-linecap: butt; stroke-dashoffset: 0; stroke-linejoin: miter; stroke-miterlimit: 4; fill: rgb(255,255,255); fill-rule: nonzero; opacity: 1;" transform=" translate(-254.32, -410.7)" d="m 257.5 451.9 c -6 0.6 -11.2 -0.5 -15.7 -3.2 c -6.1 -3.6 -10.6 -9.9 -13.7 -18 l -12 -32.2 c -0.4 -1.1 -0.1 -2.3 0.8 -3 l 6.9 -6.9 c 0.3 -0.3 0.6 -0.5 0.9 -0.6 v 0 l 15.3 -5.7 c 1.4 -0.5 2.9 0.2 3.4 1.6 l 12.3 32.9 c 0.7 1.9 1.7 3.7 3.1 4.9 c 1 0.9 2.3 1.5 3.9 1.6 c 0.3 0 0.7 0 1 0 c 0 -0.6 -0.1 -1.2 -0.2 -1.8 c -0.2 -0.9 -0.4 -1.8 -0.8 -2.8 l -12.3 -32.9 c -0.4 -1.1 -0.1 -2.3 0.8 -3 l 6.7 -6.7 c 0.3 -0.4 0.7 -0.7 1.2 -0.9 l 15.3 -5.7 c 1.4 -0.5 2.9 0.2 3.4 1.6 l 12.2 32.6 c 1.9 5 2.8 9.8 2.7 14.3 c -0.1 4.5 -1.1 8.7 -3.2 12.5 c -1.7 3 -4.9 6.1 -8.1 9.2 c -0.7 0.7 -1.5 1.4 -2.1 2 l -0.1 0.1 c -1.2 1.3 -2.6 2.5 -4.1 3.5 c -5.1 3.6 -11.2 5.9 -17.6 6.6 z" stroke-linecap="round"/>
</g>
		<g transform="matrix(3.06 0 0 3.06 5.8 -2.28)">
<polygon style="stroke: none; stroke-width: 1; stroke-dasharray: none; stroke-linecap: butt; stroke-dashoffset: 0; stroke-linejoin: miter; stroke-miterlimit: 4; fill: rgb(0,0,0); fill-rule: evenodd; opacity: 1;" points="19.85,27.95 -1.05,14.05 4.55,29.25 4.55,29.25 4.65,29.25 -2.45,36.25 -17.75,42.05 -39.55,-16.25 -32.45,-23.35 -19.05,-28.25 0.65,-15.35 -4.55,-29.25 2.45,-36.35 17.65,-42.05 39.55,16.25 32.45,23.35 "/>
</g>
		<g transform="matrix(3.06 0 0 3.06 163.77 -61.48)">
<path style="stroke: none; stroke-width: 1; stroke-dasharray: none; stroke-linecap: butt; stroke-dashoffset: 0; stroke-linejoin: miter; stroke-miterlimit: 4; fill: rgb(0,0,0); fill-rule: evenodd; opacity: 1;" transform=" translate(-359.44, -375.89)" d="m 351.9 342.5 c 16.7 -6.2 33.2 3.2 39.2 19.3 c 3.5 9.3 2.8 19.3 -1.5 27.2 c -0.2 0.5 -0.5 1 -0.8 1.5 c -6.9 11.4 -14 16.1 -20.9 18.7 c -17.2 6.4 -33.9 -3.2 -40 -19.3 c -3.4 -9.2 -3.1 -18.2 0.8 -26.1 c 2.8 -5.7 8.9 -12.9 16.8 -18.1 v 0 c 1.9 -1.3 4.1 -2.4 6.4 -3.2 z m -2.8 25.2 c 0 -0.1 0.1 -0.2 0.1 -0.3 c 1.1 -3.6 4.7 -4.7 9.2 -3.5 c 4.6 1.2 8.1 5.5 10 10.5 c 0.4 1 0.7 2 0.9 3.1 c 0.9 4.1 0.5 7 -1.2 8.6 c -2 1.9 -5.7 2 -9.9 0.2 c -3.5 -1.9 -6.2 -5.4 -7.8 -9.6 c -1.2 -3 -1.6 -6.1 -1.3 -9 z" stroke-linecap="round"/>
</g>
		<g transform="matrix(3.06 0 0 3.06 16.64 -13.14)">
<polygon style="stroke: none; stroke-width: 1; stroke-dasharray: none; stroke-linecap: butt; stroke-dashoffset: 0; stroke-linejoin: miter; stroke-miterlimit: 4; fill: rgb(0,0,0); fill-rule: evenodd; opacity: 1;" points="-10.4,2 1,32.8 -14.3,38.5 -36,-19.8 -22.6,-24.7 9.9,-3.5 -1.1,-32.8 14.1,-38.5 36,19.8 23.4,24.4 "/>
</g>
		<g transform="matrix(3.06 0 0 3.06 16.63 -13.15)">
<polygon style="stroke: none; stroke-width: 1; stroke-dasharray: none; stroke-linecap: butt; stroke-dashoffset: 0; stroke-linejoin: miter; stroke-miterlimit: 4; fill: rgb(255,255,255); fill-rule: evenodd; opacity: 1;" points="-14.5,-3.1 -1.5,31.6 -13.1,35.9 -33.4,-18.6 -22.9,-22.5 13.9,1.6 1.5,-31.6 12.9,-35.9 33.4,18.6 23.6,22.2 "/>
</g>
		<g transform="matrix(3.06 0 0 3.06 16.47 -13.15)">
<polygon style="stroke: none; stroke-width: 1; stroke-dasharray: none; stroke-linecap: butt; stroke-dashoffset: 0; stroke-linejoin: miter; stroke-miterlimit: 4; fill: rgb(248,218,39); fill-rule: evenodd; opacity: 1;" points="3.35,-30.8 12.15,-34.1 31.55,17.8 23.85,20.6 -17.25,-6.7 -3.25,30.8 -12.15,34.1 -31.55,-17.7 -23.05,-20.9 16.75,5.1 "/>
</g>
		<g transform="matrix(3.06 0 0 3.06 174.72 -72.46)">
<path style="stroke: none; stroke-width: 1; stroke-dasharray: none; stroke-linecap: butt; stroke-dashoffset: 0; stroke-linejoin: miter; stroke-miterlimit: 4; fill: rgb(0,0,0); fill-rule: evenodd; opacity: 1;" transform=" translate(-363.02, -372.3)" d="m 351.9 342.5 c 16.7 -6.2 33.2 3.2 39.2 19.3 c 6 16.1 -0.3 34.1 -16.9 40.3 c -16.7 6.2 -33.2 -3.2 -39.2 -19.3 c -6.1 -16.2 0.2 -34.1 16.9 -40.3 z m 5.5 14.7 c -8.4 3.1 -9.9 11.7 -7 19.5 c 2.9 7.7 9.6 13.2 18.1 10.1 c 8.4 -3.2 9.9 -11.7 7 -19.5 c -3 -7.7 -9.7 -13.2 -18.1 -10.1 z" stroke-linecap="round"/>
</g>
		<g transform="matrix(3.06 0 0 3.06 174.77 -72.17)">
<path style="stroke: none; stroke-width: 1; stroke-dasharray: none; stroke-linecap: butt; stroke-dashoffset: 0; stroke-linejoin: miter; stroke-miterlimit: 4; fill: rgb(255,255,255); fill-rule: evenodd; opacity: 1;" transform=" translate(-363.04, -372.39)" d="m 352.6 344.4 c 15.6 -5.8 31 3 36.7 18.2 c 5.6 15.1 -0.2 31.9 -15.8 37.8 c -15.6 5.8 -31 -3.1 -36.7 -18.2 c -5.6 -15.2 0.1 -32 15.8 -37.8 z m 4.1 10.9 c -9.5 3.5 -11.5 13.3 -8.2 22.1 c 3.3 8.8 11.1 14.8 20.7 11.3 c 9.5 -3.6 11.5 -13.3 8.2 -22 c -3.4 -8.8 -11.2 -14.9 -20.7 -11.4 z" stroke-linecap="round"/>
</g>
		<g transform="matrix(3.06 0 0 3.06 174.84 -72.53)">
<path style="stroke: none; stroke-width: 1; stroke-dasharray: none; stroke-linecap: butt; stroke-dashoffset: 0; stroke-linejoin: miter; stroke-miterlimit: 4; fill: rgb(248,218,39); fill-rule: evenodd; opacity: 1;" transform=" translate(-363.06, -372.28)" d="m 356.2 354 c 9.9 -3.7 18.7 2.2 22.4 12.1 c 3.7 9.9 0.9 20.1 -9 23.8 c -9.9 3.7 -18.8 -2.2 -22.5 -12.1 c -3.7 -9.8 -0.8 -20.1 9.1 -23.8 z m -3.1 -8.3 c 14.6 -5.5 29.4 2.6 34.9 17.3 c 5.5 14.7 -0.4 30.5 -14.9 35.9 c -14.6 5.4 -29.4 -2.6 -34.9 -17.3 c -5.6 -14.7 0.2 -30.5 14.9 -35.9 z" stroke-linecap="round"/>
</g>
		<g transform="matrix(3.06 0 0 3.06 -157.3 44.85)">
<path style="stroke: none; stroke-width: 1; stroke-dasharray: none; stroke-linecap: butt; stroke-dashoffset: 0; stroke-linejoin: miter; stroke-miterlimit: 4; fill: rgb(0,0,0); fill-rule: evenodd; opacity: 1;" transform=" translate(-254.39, -410.67)" d="m 255.9 449.4 c -12 0.7 -20.5 -7 -25.2 -19.7 l -12 -32.2 l 7 -7.1 l 15.3 -5.7 l 12.3 32.9 c 1.6 4.2 4.5 7.9 9.4 8.1 c 1.4 0.1 3.3 -0.1 3.7 -1.9 c 0.1 -2.1 -0.3 -4.2 -1.1 -6.2 l -12.3 -32.9 l 7.1 -7.1 v 0 v 0 v 0 v 0 l 15.2 -5.7 l 12.2 32.6 c 3.5 9.4 3.5 17.8 -0.3 24.6 c -1.8 3.2 -6.1 7 -9.7 10.6 v 0 c -5.5 5.8 -13.8 9.3 -21.6 9.7 z" stroke-linecap="round"/>
</g>
		<g transform="matrix(3.06 0 0 3.06 -146.36 33.96)">
<path style="stroke: none; stroke-width: 1; stroke-dasharray: none; stroke-linecap: butt; stroke-dashoffset: 0; stroke-linejoin: miter; stroke-miterlimit: 4; fill: rgb(0,0,0); fill-rule: evenodd; opacity: 1;" transform=" translate(-257.98, -407.11)" d="m 276 438.7 l 0.1 0.2 l -3.2 1.2 c -0.1 0 -0.2 0.1 -0.2 0.1 c -0.1 0 -0.2 0.1 -0.3 0.1 l -3.2 1.2 l -0.1 -0.2 c -15.3 4 -25.8 -4 -31.3 -18.7 l -12 -32.2 l 15.3 -5.7 l 12.3 32.9 c 1.6 4.2 4.5 7.9 9.4 8.1 c 1.4 0.1 2.9 -0.2 4.2 -0.7 c 1.4 -0.5 2.7 -1.3 3.7 -2.3 c 3.5 -3.3 3.3 -8 1.7 -12.2 l -12.4 -32.9 l 15.3 -5.7 l 12.2 32.6 c 5.5 14.8 2.8 27.3 -11.5 34.2 z" stroke-linecap="round"/>
</g>
		<g transform="matrix(3.06 0 0 3.06 -145.65 35.09)">
<path style="stroke: none; stroke-width: 1; stroke-dasharray: none; stroke-linecap: butt; stroke-dashoffset: 0; stroke-linejoin: miter; stroke-miterlimit: 4; fill: rgb(255,255,255); fill-rule: evenodd; opacity: 1;" transform=" translate(-258.21, -407.48)" d="m 273.4 437.7 v 0 l -1.3 0.5 c -0.1 0 -0.2 0.1 -0.3 0.1 c -0.1 0 -0.2 0.1 -0.3 0.1 l -1.3 0.5 v 0 C 255 443.7 244.9 436.4 239.6 422 l -11.3 -30.3 l 11.5 -4.3 l 11.6 31 c 1.9 5 5.5 9.2 11.2 9.4 c 1.7 0.1 3.4 -0.2 5 -0.8 c 1.6 -0.6 3.2 -1.5 4.4 -2.7 c 4.1 -3.9 4.1 -9.4 2.2 -14.4 l -11.6 -31 l 11.5 -4.3 l 11.5 30.7 c 5.4 14.4 2.5 26.1 -12.2 32.4 z" stroke-linecap="round"/>
</g>
		<g transform="matrix(3.06 0 0 3.06 -144.99 35.8)">
<path style="stroke: none; stroke-width: 1; stroke-dasharray: none; stroke-linecap: butt; stroke-dashoffset: 0; stroke-linejoin: miter; stroke-miterlimit: 4; fill: rgb(248,218,39); fill-rule: evenodd; opacity: 1;" transform=" translate(-258.43, -407.72)" d="m 230.1 392.5 l 8.9 -3.3 l 11.1 29.7 c 3.7 9.8 11.5 11.8 18 9.4 c 6.5 -2.5 11.2 -9.1 7.4 -18.9 l -11.1 -29.7 l 8.9 -3.3 l 11 29.4 c 4.4 11.7 4.4 24.5 -12.7 31.2 v 0 c -0.1 0 -0.2 0.1 -0.3 0.1 c -0.1 0 -0.2 0.1 -0.3 0.1 v 0 c -16.8 6 -25.7 -3.6 -30.2 -15.6 z" stroke-linecap="round"/>
</g>
		<g transform="matrix(3.06 0 0 3.06 15.31 -77.43)">
<path style="stroke: none; stroke-width: 1; stroke-dasharray: none; stroke-linecap: butt; stroke-dashoffset: 0; stroke-linejoin: miter; stroke-miterlimit: 4; fill: rgb(88,88,90); fill-rule: evenodd; opacity: 1;" transform=" translate(-310.9, -370.7)" d="m 305.5 366.4 l 5.5 -5.6 l 3.1 8.3 l -5.5 5.6 z m 4.1 11.1 l 5.5 -5.6 l 1.2 3.1 l -5.5 5.6 z" stroke-linecap="round"/>
</g>
		<g transform="matrix(3.06 0 0 3.06 -138.13 -19.96)">
<path style="stroke: none; stroke-width: 1; stroke-dasharray: none; stroke-linecap: butt; stroke-dashoffset: 0; stroke-linejoin: miter; stroke-miterlimit: 4; fill: rgb(88,88,90); fill-rule: evenodd; opacity: 1;" transform=" translate(-260.7, -389.5)" d="m 255.3 385.2 l 5.5 -5.6 l 3.1 8.3 l -5.5 5.6 z m 4.1 11.1 l 5.5 -5.6 l 1.2 3.1 l -5.5 5.6 z" stroke-linecap="round"/>
</g>
		<g transform="matrix(3.06 0 0 3.06 -221.57 76.32)">
<path style="stroke: none; stroke-width: 1; stroke-dasharray: none; stroke-linecap: butt; stroke-dashoffset: 0; stroke-linejoin: miter; stroke-miterlimit: 4; fill: rgb(88,88,90); fill-rule: evenodd; opacity: 1;" transform=" translate(-233.4, -421)" d="m 227.9 416.7 l 5.5 -5.6 l 3.1 8.3 l -5.5 5.6 z m 4.2 11.1 l 5.5 -5.6 v 0 l 0.2 0.4 c 0.4 0.9 0.7 1.8 1.1 2.7 l -5.6 5.6 z" stroke-linecap="round"/>
</g>
		<g transform="matrix(3.06 0 0 3.06 197.18 -85.37)">
<path style="stroke: none; stroke-width: 1; stroke-dasharray: none; stroke-linecap: butt; stroke-dashoffset: 0; stroke-linejoin: miter; stroke-miterlimit: 4; fill: rgb(88,88,90); fill-rule: evenodd; opacity: 1;" transform=" translate(-370.4, -368.1)" d="m 364.2 364.7 l 5.6 -5.6 c 2 1.6 3.7 3.9 4.9 6.5 l -5.5 5.5 c -1.2 -2.4 -2.9 -4.7 -5 -6.4 z m 6.2 9.1 l 5.4 -5.5 c 0.4 1.2 0.6 2.3 0.8 3.5 l -5.3 5.3 V 377 c -0.2 -1 -0.5 -2.1 -0.9 -3.2 z" stroke-linecap="round"/>
</g>
</g>
</g>

</svg>